<mxfile host="app.diagrams.net" modified="2023-12-02T19:37:28.795Z" agent="Mozilla/5.0 (Windows NT 10.0; Win64; x64) AppleWebKit/537.36 (KHTML, like Gecko) Chrome/119.0.0.0 Safari/537.36" etag="hXrU-pnQHplkIJHT5Drn" version="22.1.5" type="device">
  <diagram name="Page-1" id="tajsgTH4dyHng_gMF2nl">
    <mxGraphModel dx="1246" dy="694" grid="1" gridSize="10" guides="1" tooltips="1" connect="1" arrows="1" fold="1" page="1" pageScale="1" pageWidth="3300" pageHeight="4681" math="0" shadow="0">
      <root>
        <mxCell id="0" />
        <mxCell id="1" parent="0" />
        <mxCell id="2riaoFkCgRDuT4ozKjDX-1" value="Utilizador" style="rounded=0;whiteSpace=wrap;html=1;fillColor=#FAE5C7;strokeColor=#0F8B8D;labelBackgroundColor=none;fontColor=#143642;" parent="1" vertex="1">
          <mxGeometry x="640" y="1280" width="120" height="80" as="geometry" />
        </mxCell>
        <mxCell id="2riaoFkCgRDuT4ozKjDX-2" value="" style="endArrow=none;html=1;rounded=0;entryX=0;entryY=0.5;entryDx=0;entryDy=0;exitX=1;exitY=0.5;exitDx=0;exitDy=0;labelBackgroundColor=none;strokeColor=#A8201A;fontColor=default;" parent="1" source="2riaoFkCgRDuT4ozKjDX-9" target="2riaoFkCgRDuT4ozKjDX-1" edge="1">
          <mxGeometry width="50" height="50" relative="1" as="geometry">
            <mxPoint x="560" y="1360" as="sourcePoint" />
            <mxPoint x="620" y="1340" as="targetPoint" />
          </mxGeometry>
        </mxCell>
        <mxCell id="2riaoFkCgRDuT4ozKjDX-3" value="Participar" style="rhombus;whiteSpace=wrap;html=1;labelBackgroundColor=none;fillColor=#FAE5C7;strokeColor=#0F8B8D;fontColor=#143642;" parent="1" vertex="1">
          <mxGeometry x="840" y="1280" width="80" height="80" as="geometry" />
        </mxCell>
        <mxCell id="2riaoFkCgRDuT4ozKjDX-4" value="n" style="text;html=1;strokeColor=none;fillColor=none;align=center;verticalAlign=middle;whiteSpace=wrap;rounded=0;labelBackgroundColor=none;fontColor=#143642;" parent="1" vertex="1">
          <mxGeometry x="1110" y="1290" width="60" height="30" as="geometry" />
        </mxCell>
        <mxCell id="2riaoFkCgRDuT4ozKjDX-5" value="Desafio" style="rounded=0;whiteSpace=wrap;html=1;labelBackgroundColor=none;fillColor=#FAE5C7;strokeColor=#0F8B8D;fontColor=#143642;" parent="1" vertex="1">
          <mxGeometry x="1000" y="1280" width="120" height="80" as="geometry" />
        </mxCell>
        <mxCell id="2riaoFkCgRDuT4ozKjDX-6" value="Região" style="rounded=0;whiteSpace=wrap;html=1;labelBackgroundColor=none;fillColor=#FAE5C7;strokeColor=#0F8B8D;fontColor=#143642;" parent="1" vertex="1">
          <mxGeometry x="1360" y="1600" width="120" height="80" as="geometry" />
        </mxCell>
        <mxCell id="2riaoFkCgRDuT4ozKjDX-7" value="País" style="rounded=0;whiteSpace=wrap;html=1;labelBackgroundColor=none;fillColor=#FAE5C7;strokeColor=#0F8B8D;fontColor=#143642;" parent="1" vertex="1">
          <mxGeometry x="1360" y="1920" width="120" height="80" as="geometry" />
        </mxCell>
        <mxCell id="2riaoFkCgRDuT4ozKjDX-8" value="Localidade" style="rounded=0;whiteSpace=wrap;html=1;labelBackgroundColor=none;fillColor=#FAE5C7;strokeColor=#0F8B8D;fontColor=#143642;" parent="1" vertex="1">
          <mxGeometry x="1360" y="1280" width="120" height="80" as="geometry" />
        </mxCell>
        <mxCell id="2riaoFkCgRDuT4ozKjDX-9" value="id_user" style="ellipse;whiteSpace=wrap;html=1;labelBackgroundColor=none;fillColor=#FAE5C7;strokeColor=#0F8B8D;fontColor=#143642;" parent="1" vertex="1">
          <mxGeometry x="520" y="1280" width="80" height="80" as="geometry" />
        </mxCell>
        <mxCell id="2riaoFkCgRDuT4ozKjDX-10" value="" style="endArrow=none;html=1;rounded=0;entryX=0;entryY=0.5;entryDx=0;entryDy=0;exitX=1;exitY=0.5;exitDx=0;exitDy=0;labelBackgroundColor=none;strokeColor=#A8201A;fontColor=default;" parent="1" source="2riaoFkCgRDuT4ozKjDX-11" target="2riaoFkCgRDuT4ozKjDX-9" edge="1">
          <mxGeometry width="50" height="50" relative="1" as="geometry">
            <mxPoint x="440" y="1360" as="sourcePoint" />
            <mxPoint x="520" y="1320" as="targetPoint" />
          </mxGeometry>
        </mxCell>
        <mxCell id="2riaoFkCgRDuT4ozKjDX-11" value="nome" style="ellipse;whiteSpace=wrap;html=1;labelBackgroundColor=none;fillColor=#FAE5C7;strokeColor=#0F8B8D;fontColor=#143642;" parent="1" vertex="1">
          <mxGeometry x="400" y="1280" width="80" height="80" as="geometry" />
        </mxCell>
        <mxCell id="2riaoFkCgRDuT4ozKjDX-12" value="" style="endArrow=none;html=1;rounded=0;entryX=0;entryY=0.5;entryDx=0;entryDy=0;exitX=1;exitY=0.5;exitDx=0;exitDy=0;labelBackgroundColor=none;strokeColor=#A8201A;fontColor=default;" parent="1" source="2riaoFkCgRDuT4ozKjDX-13" target="2riaoFkCgRDuT4ozKjDX-11" edge="1">
          <mxGeometry width="50" height="50" relative="1" as="geometry">
            <mxPoint x="320" y="1360" as="sourcePoint" />
            <mxPoint x="400" y="1320" as="targetPoint" />
          </mxGeometry>
        </mxCell>
        <mxCell id="2riaoFkCgRDuT4ozKjDX-13" value="idade" style="ellipse;whiteSpace=wrap;html=1;labelBackgroundColor=none;fillColor=#FAE5C7;strokeColor=#0F8B8D;fontColor=#143642;" parent="1" vertex="1">
          <mxGeometry x="280" y="1280" width="80" height="80" as="geometry" />
        </mxCell>
        <mxCell id="2riaoFkCgRDuT4ozKjDX-14" value="" style="endArrow=none;html=1;rounded=0;exitX=1;exitY=0.5;exitDx=0;exitDy=0;entryX=0;entryY=0.5;entryDx=0;entryDy=0;labelBackgroundColor=none;strokeColor=#A8201A;fontColor=default;" parent="1" source="2riaoFkCgRDuT4ozKjDX-15" target="2riaoFkCgRDuT4ozKjDX-13" edge="1">
          <mxGeometry width="50" height="50" relative="1" as="geometry">
            <mxPoint x="200" y="1360" as="sourcePoint" />
            <mxPoint x="270" y="1350" as="targetPoint" />
          </mxGeometry>
        </mxCell>
        <mxCell id="2riaoFkCgRDuT4ozKjDX-15" value="email" style="ellipse;whiteSpace=wrap;html=1;labelBackgroundColor=none;fillColor=#FAE5C7;strokeColor=#0F8B8D;fontColor=#143642;" parent="1" vertex="1">
          <mxGeometry x="160" y="1280" width="80" height="80" as="geometry" />
        </mxCell>
        <mxCell id="2riaoFkCgRDuT4ozKjDX-16" value="" style="endArrow=none;html=1;rounded=0;exitX=1;exitY=0.5;exitDx=0;exitDy=0;entryX=0;entryY=0.5;entryDx=0;entryDy=0;labelBackgroundColor=none;strokeColor=#A8201A;fontColor=default;" parent="1" source="2riaoFkCgRDuT4ozKjDX-17" target="2riaoFkCgRDuT4ozKjDX-15" edge="1">
          <mxGeometry width="50" height="50" relative="1" as="geometry">
            <mxPoint x="80" y="1360" as="sourcePoint" />
            <mxPoint x="150" y="1340" as="targetPoint" />
          </mxGeometry>
        </mxCell>
        <mxCell id="2riaoFkCgRDuT4ozKjDX-17" value="telefone" style="ellipse;whiteSpace=wrap;html=1;labelBackgroundColor=none;fillColor=#FAE5C7;strokeColor=#0F8B8D;fontColor=#143642;" parent="1" vertex="1">
          <mxGeometry x="40" y="1280" width="80" height="80" as="geometry" />
        </mxCell>
        <mxCell id="2riaoFkCgRDuT4ozKjDX-18" value="" style="endArrow=none;html=1;rounded=0;entryX=0;entryY=0.5;entryDx=0;entryDy=0;exitX=1;exitY=0.5;exitDx=0;exitDy=0;labelBackgroundColor=none;strokeColor=#A8201A;fontColor=default;" parent="1" source="2riaoFkCgRDuT4ozKjDX-5" target="2riaoFkCgRDuT4ozKjDX-19" edge="1">
          <mxGeometry width="50" height="50" relative="1" as="geometry">
            <mxPoint x="1170" y="1320" as="sourcePoint" />
            <mxPoint x="1070" y="1420" as="targetPoint" />
          </mxGeometry>
        </mxCell>
        <mxCell id="2riaoFkCgRDuT4ozKjDX-19" value="Situar-se" style="rhombus;whiteSpace=wrap;html=1;labelBackgroundColor=none;fillColor=#FAE5C7;strokeColor=#0F8B8D;fontColor=#143642;" parent="1" vertex="1">
          <mxGeometry x="1200" y="1280" width="80" height="80" as="geometry" />
        </mxCell>
        <mxCell id="2riaoFkCgRDuT4ozKjDX-20" value="" style="endArrow=none;html=1;rounded=0;entryX=0;entryY=0.5;entryDx=0;entryDy=0;exitX=1;exitY=0.5;exitDx=0;exitDy=0;labelBackgroundColor=none;strokeColor=#A8201A;fontColor=default;" parent="1" source="2riaoFkCgRDuT4ozKjDX-19" target="2riaoFkCgRDuT4ozKjDX-8" edge="1">
          <mxGeometry width="50" height="50" relative="1" as="geometry">
            <mxPoint x="1150" y="1330" as="sourcePoint" />
            <mxPoint x="1230" y="1330" as="targetPoint" />
          </mxGeometry>
        </mxCell>
        <mxCell id="2riaoFkCgRDuT4ozKjDX-22" value="Situar-se/&lt;br&gt;Ter" style="rhombus;whiteSpace=wrap;html=1;labelBackgroundColor=none;fillColor=#FAE5C7;strokeColor=#0F8B8D;fontColor=#143642;" parent="1" vertex="1">
          <mxGeometry x="1380" y="1440" width="80" height="80" as="geometry" />
        </mxCell>
        <mxCell id="2riaoFkCgRDuT4ozKjDX-26" value="" style="endArrow=none;html=1;rounded=0;entryX=0.5;entryY=0;entryDx=0;entryDy=0;exitX=0.5;exitY=1;exitDx=0;exitDy=0;labelBackgroundColor=none;strokeColor=#A8201A;fontColor=default;" parent="1" source="2riaoFkCgRDuT4ozKjDX-8" target="2riaoFkCgRDuT4ozKjDX-22" edge="1">
          <mxGeometry width="50" height="50" relative="1" as="geometry">
            <mxPoint x="1210" y="1480" as="sourcePoint" />
            <mxPoint x="1310" y="1560" as="targetPoint" />
          </mxGeometry>
        </mxCell>
        <mxCell id="2riaoFkCgRDuT4ozKjDX-27" value="" style="endArrow=none;html=1;rounded=0;entryX=0.5;entryY=0;entryDx=0;entryDy=0;exitX=0.5;exitY=1;exitDx=0;exitDy=0;labelBackgroundColor=none;strokeColor=#A8201A;fontColor=default;" parent="1" source="2riaoFkCgRDuT4ozKjDX-22" target="2riaoFkCgRDuT4ozKjDX-6" edge="1">
          <mxGeometry width="50" height="50" relative="1" as="geometry">
            <mxPoint x="1200" y="1680" as="sourcePoint" />
            <mxPoint x="1300" y="1700" as="targetPoint" />
          </mxGeometry>
        </mxCell>
        <mxCell id="2riaoFkCgRDuT4ozKjDX-29" value="1" style="text;html=1;strokeColor=none;fillColor=none;align=center;verticalAlign=middle;whiteSpace=wrap;rounded=0;labelBackgroundColor=none;fontColor=#143642;" parent="1" vertex="1">
          <mxGeometry x="1320" y="1290" width="60" height="30" as="geometry" />
        </mxCell>
        <mxCell id="2riaoFkCgRDuT4ozKjDX-31" value="n" style="text;html=1;strokeColor=none;fillColor=none;align=center;verticalAlign=middle;whiteSpace=wrap;rounded=0;labelBackgroundColor=none;fontColor=#143642;" parent="1" vertex="1">
          <mxGeometry x="1400" y="1360" width="60" height="30" as="geometry" />
        </mxCell>
        <mxCell id="2riaoFkCgRDuT4ozKjDX-35" value="1" style="text;html=1;strokeColor=none;fillColor=none;align=center;verticalAlign=middle;whiteSpace=wrap;rounded=0;labelBackgroundColor=none;fontColor=#143642;" parent="1" vertex="1">
          <mxGeometry x="1400" y="1570" width="60" height="30" as="geometry" />
        </mxCell>
        <mxCell id="2riaoFkCgRDuT4ozKjDX-36" value="" style="endArrow=none;html=1;rounded=0;entryX=0;entryY=0.5;entryDx=0;entryDy=0;exitX=1;exitY=0.5;exitDx=0;exitDy=0;labelBackgroundColor=none;strokeColor=#A8201A;fontColor=default;" parent="1" source="2riaoFkCgRDuT4ozKjDX-1" target="2riaoFkCgRDuT4ozKjDX-3" edge="1">
          <mxGeometry width="50" height="50" relative="1" as="geometry">
            <mxPoint x="610" y="1330" as="sourcePoint" />
            <mxPoint x="650" y="1330" as="targetPoint" />
          </mxGeometry>
        </mxCell>
        <mxCell id="2riaoFkCgRDuT4ozKjDX-37" value="" style="endArrow=none;html=1;rounded=0;entryX=0;entryY=0.5;entryDx=0;entryDy=0;exitX=1;exitY=0.5;exitDx=0;exitDy=0;labelBackgroundColor=none;strokeColor=#A8201A;fontColor=default;" parent="1" source="2riaoFkCgRDuT4ozKjDX-3" target="2riaoFkCgRDuT4ozKjDX-5" edge="1">
          <mxGeometry width="50" height="50" relative="1" as="geometry">
            <mxPoint x="770" y="1330" as="sourcePoint" />
            <mxPoint x="850" y="1330" as="targetPoint" />
          </mxGeometry>
        </mxCell>
        <mxCell id="2riaoFkCgRDuT4ozKjDX-38" value="n" style="text;html=1;strokeColor=none;fillColor=none;align=center;verticalAlign=middle;whiteSpace=wrap;rounded=0;labelBackgroundColor=none;fontColor=#143642;" parent="1" vertex="1">
          <mxGeometry x="740" y="1320" width="60" height="30" as="geometry" />
        </mxCell>
        <mxCell id="2riaoFkCgRDuT4ozKjDX-39" value="n" style="text;html=1;strokeColor=none;fillColor=none;align=center;verticalAlign=middle;whiteSpace=wrap;rounded=0;labelBackgroundColor=none;fontColor=#143642;" parent="1" vertex="1">
          <mxGeometry x="960" y="1320" width="60" height="30" as="geometry" />
        </mxCell>
        <mxCell id="2riaoFkCgRDuT4ozKjDX-41" value="Criar" style="rhombus;whiteSpace=wrap;html=1;labelBackgroundColor=none;fillColor=#FAE5C7;strokeColor=#0F8B8D;fontColor=#143642;" parent="1" vertex="1">
          <mxGeometry x="840" y="1160" width="80" height="80" as="geometry" />
        </mxCell>
        <mxCell id="2riaoFkCgRDuT4ozKjDX-42" value="" style="endArrow=none;html=1;rounded=0;entryX=0;entryY=0.5;entryDx=0;entryDy=0;exitX=1;exitY=0.5;exitDx=0;exitDy=0;labelBackgroundColor=none;strokeColor=#A8201A;fontColor=default;" parent="1" source="2riaoFkCgRDuT4ozKjDX-1" target="2riaoFkCgRDuT4ozKjDX-41" edge="1">
          <mxGeometry width="50" height="50" relative="1" as="geometry">
            <mxPoint x="770" y="1330" as="sourcePoint" />
            <mxPoint x="850" y="1330" as="targetPoint" />
          </mxGeometry>
        </mxCell>
        <mxCell id="2riaoFkCgRDuT4ozKjDX-43" value="" style="endArrow=none;html=1;rounded=0;entryX=1;entryY=0.5;entryDx=0;entryDy=0;exitX=0;exitY=0.5;exitDx=0;exitDy=0;labelBackgroundColor=none;strokeColor=#A8201A;fontColor=default;" parent="1" source="2riaoFkCgRDuT4ozKjDX-5" target="2riaoFkCgRDuT4ozKjDX-41" edge="1">
          <mxGeometry width="50" height="50" relative="1" as="geometry">
            <mxPoint x="770" y="1330" as="sourcePoint" />
            <mxPoint x="850" y="1210" as="targetPoint" />
          </mxGeometry>
        </mxCell>
        <mxCell id="2riaoFkCgRDuT4ozKjDX-44" value="1" style="text;html=1;strokeColor=none;fillColor=none;align=center;verticalAlign=middle;whiteSpace=wrap;rounded=0;labelBackgroundColor=none;fontColor=#143642;" parent="1" vertex="1">
          <mxGeometry x="750" y="1250" width="60" height="30" as="geometry" />
        </mxCell>
        <mxCell id="2riaoFkCgRDuT4ozKjDX-45" value="n" style="text;html=1;strokeColor=none;fillColor=none;align=center;verticalAlign=middle;whiteSpace=wrap;rounded=0;labelBackgroundColor=none;fontColor=#143642;" parent="1" vertex="1">
          <mxGeometry x="950" y="1250" width="60" height="30" as="geometry" />
        </mxCell>
        <mxCell id="2riaoFkCgRDuT4ozKjDX-46" value="" style="endArrow=none;html=1;rounded=0;exitX=0.5;exitY=1;exitDx=0;exitDy=0;entryX=0.5;entryY=0;entryDx=0;entryDy=0;labelBackgroundColor=none;strokeColor=#A8201A;fontColor=default;" parent="1" source="2riaoFkCgRDuT4ozKjDX-5" target="2riaoFkCgRDuT4ozKjDX-60" edge="1">
          <mxGeometry width="50" height="50" relative="1" as="geometry">
            <mxPoint x="1020" y="1424.5" as="sourcePoint" />
            <mxPoint x="1060" y="1430" as="targetPoint" />
          </mxGeometry>
        </mxCell>
        <mxCell id="2riaoFkCgRDuT4ozKjDX-48" value="" style="endArrow=none;html=1;rounded=0;exitX=1;exitY=0.5;exitDx=0;exitDy=0;entryX=0;entryY=0.5;entryDx=0;entryDy=0;labelBackgroundColor=none;strokeColor=#A8201A;fontColor=default;" parent="1" source="2riaoFkCgRDuT4ozKjDX-8" target="2riaoFkCgRDuT4ozKjDX-49" edge="1">
          <mxGeometry width="50" height="50" relative="1" as="geometry">
            <mxPoint x="1530" y="1340" as="sourcePoint" />
            <mxPoint x="1530" y="1320" as="targetPoint" />
          </mxGeometry>
        </mxCell>
        <mxCell id="2riaoFkCgRDuT4ozKjDX-49" value="id_localidade" style="ellipse;whiteSpace=wrap;html=1;labelBackgroundColor=none;fillColor=#FAE5C7;strokeColor=#0F8B8D;fontColor=#143642;" parent="1" vertex="1">
          <mxGeometry x="1520" y="1280" width="80" height="80" as="geometry" />
        </mxCell>
        <mxCell id="2riaoFkCgRDuT4ozKjDX-50" value="" style="endArrow=none;html=1;rounded=0;exitX=1;exitY=0.5;exitDx=0;exitDy=0;entryX=0;entryY=0.5;entryDx=0;entryDy=0;labelBackgroundColor=none;strokeColor=#A8201A;fontColor=default;" parent="1" source="2riaoFkCgRDuT4ozKjDX-49" target="2riaoFkCgRDuT4ozKjDX-51" edge="1">
          <mxGeometry width="50" height="50" relative="1" as="geometry">
            <mxPoint x="1600" y="1320" as="sourcePoint" />
            <mxPoint x="1650" y="1320" as="targetPoint" />
          </mxGeometry>
        </mxCell>
        <mxCell id="2riaoFkCgRDuT4ozKjDX-51" value="nome" style="ellipse;whiteSpace=wrap;html=1;labelBackgroundColor=none;fillColor=#FAE5C7;strokeColor=#0F8B8D;fontColor=#143642;" parent="1" vertex="1">
          <mxGeometry x="1640" y="1280" width="80" height="80" as="geometry" />
        </mxCell>
        <mxCell id="2riaoFkCgRDuT4ozKjDX-52" value="" style="endArrow=none;html=1;rounded=0;exitX=1;exitY=0.5;exitDx=0;exitDy=0;entryX=0;entryY=0.5;entryDx=0;entryDy=0;labelBackgroundColor=none;strokeColor=#A8201A;fontColor=default;" parent="1" source="2riaoFkCgRDuT4ozKjDX-6" target="2riaoFkCgRDuT4ozKjDX-53" edge="1">
          <mxGeometry width="50" height="50" relative="1" as="geometry">
            <mxPoint x="1480" y="1640" as="sourcePoint" />
            <mxPoint x="1530" y="1640" as="targetPoint" />
          </mxGeometry>
        </mxCell>
        <mxCell id="2riaoFkCgRDuT4ozKjDX-53" value="id_regiao" style="ellipse;whiteSpace=wrap;html=1;labelBackgroundColor=none;fillColor=#FAE5C7;strokeColor=#0F8B8D;fontColor=#143642;" parent="1" vertex="1">
          <mxGeometry x="1520" y="1600" width="80" height="80" as="geometry" />
        </mxCell>
        <mxCell id="2riaoFkCgRDuT4ozKjDX-54" value="" style="endArrow=none;html=1;rounded=0;exitX=1;exitY=0.5;exitDx=0;exitDy=0;entryX=0;entryY=0.5;entryDx=0;entryDy=0;labelBackgroundColor=none;strokeColor=#A8201A;fontColor=default;" parent="1" source="2riaoFkCgRDuT4ozKjDX-53" target="2riaoFkCgRDuT4ozKjDX-55" edge="1">
          <mxGeometry width="50" height="50" relative="1" as="geometry">
            <mxPoint x="1600" y="1640" as="sourcePoint" />
            <mxPoint x="1650" y="1640" as="targetPoint" />
          </mxGeometry>
        </mxCell>
        <mxCell id="2riaoFkCgRDuT4ozKjDX-55" value="nome" style="ellipse;whiteSpace=wrap;html=1;labelBackgroundColor=none;fillColor=#FAE5C7;strokeColor=#0F8B8D;fontColor=#143642;" parent="1" vertex="1">
          <mxGeometry x="1640" y="1600" width="80" height="80" as="geometry" />
        </mxCell>
        <mxCell id="2riaoFkCgRDuT4ozKjDX-56" value="" style="endArrow=none;html=1;rounded=0;exitX=1;exitY=0.5;exitDx=0;exitDy=0;entryX=0;entryY=0.5;entryDx=0;entryDy=0;labelBackgroundColor=none;strokeColor=#A8201A;fontColor=default;" parent="1" target="2riaoFkCgRDuT4ozKjDX-57" edge="1">
          <mxGeometry width="50" height="50" relative="1" as="geometry">
            <mxPoint x="1480" y="1960" as="sourcePoint" />
            <mxPoint x="1530" y="1960" as="targetPoint" />
          </mxGeometry>
        </mxCell>
        <mxCell id="2riaoFkCgRDuT4ozKjDX-57" value="id_pais" style="ellipse;whiteSpace=wrap;html=1;labelBackgroundColor=none;fillColor=#FAE5C7;strokeColor=#0F8B8D;fontColor=#143642;" parent="1" vertex="1">
          <mxGeometry x="1520" y="1920" width="80" height="80" as="geometry" />
        </mxCell>
        <mxCell id="2riaoFkCgRDuT4ozKjDX-58" value="" style="endArrow=none;html=1;rounded=0;exitX=1;exitY=0.5;exitDx=0;exitDy=0;entryX=0;entryY=0.5;entryDx=0;entryDy=0;labelBackgroundColor=none;strokeColor=#A8201A;fontColor=default;" parent="1" source="2riaoFkCgRDuT4ozKjDX-57" target="2riaoFkCgRDuT4ozKjDX-59" edge="1">
          <mxGeometry width="50" height="50" relative="1" as="geometry">
            <mxPoint x="1600" y="1960" as="sourcePoint" />
            <mxPoint x="1650" y="1960" as="targetPoint" />
          </mxGeometry>
        </mxCell>
        <mxCell id="2riaoFkCgRDuT4ozKjDX-59" value="nome" style="ellipse;whiteSpace=wrap;html=1;labelBackgroundColor=none;fillColor=#FAE5C7;strokeColor=#0F8B8D;fontColor=#143642;" parent="1" vertex="1">
          <mxGeometry x="1640" y="1920" width="80" height="80" as="geometry" />
        </mxCell>
        <mxCell id="2riaoFkCgRDuT4ozKjDX-60" value="id_desafio" style="ellipse;whiteSpace=wrap;html=1;labelBackgroundColor=none;fillColor=#FAE5C7;strokeColor=#0F8B8D;fontColor=#143642;" parent="1" vertex="1">
          <mxGeometry x="1020" y="1400" width="80" height="80" as="geometry" />
        </mxCell>
        <mxCell id="2riaoFkCgRDuT4ozKjDX-61" value="" style="endArrow=none;html=1;rounded=0;exitX=0.5;exitY=1;exitDx=0;exitDy=0;entryX=0.5;entryY=0;entryDx=0;entryDy=0;labelBackgroundColor=none;strokeColor=#A8201A;fontColor=default;" parent="1" source="2riaoFkCgRDuT4ozKjDX-60" target="2riaoFkCgRDuT4ozKjDX-62" edge="1">
          <mxGeometry width="50" height="50" relative="1" as="geometry">
            <mxPoint x="1060" y="1480" as="sourcePoint" />
            <mxPoint x="1060" y="1550" as="targetPoint" />
          </mxGeometry>
        </mxCell>
        <mxCell id="2riaoFkCgRDuT4ozKjDX-62" value="descriçao" style="ellipse;whiteSpace=wrap;html=1;labelBackgroundColor=none;fillColor=#FAE5C7;strokeColor=#0F8B8D;fontColor=#143642;" parent="1" vertex="1">
          <mxGeometry x="1020" y="1520" width="80" height="80" as="geometry" />
        </mxCell>
        <mxCell id="2riaoFkCgRDuT4ozKjDX-63" value="" style="endArrow=none;html=1;rounded=0;exitX=0.5;exitY=1;exitDx=0;exitDy=0;entryX=0.5;entryY=0;entryDx=0;entryDy=0;labelBackgroundColor=none;strokeColor=#A8201A;fontColor=default;" parent="1" source="2riaoFkCgRDuT4ozKjDX-3" target="2riaoFkCgRDuT4ozKjDX-64" edge="1">
          <mxGeometry width="50" height="50" relative="1" as="geometry">
            <mxPoint x="880" y="1360" as="sourcePoint" />
            <mxPoint x="880" y="1430" as="targetPoint" />
          </mxGeometry>
        </mxCell>
        <mxCell id="2riaoFkCgRDuT4ozKjDX-64" value="sucesso" style="ellipse;whiteSpace=wrap;html=1;labelBackgroundColor=none;fillColor=#FAE5C7;strokeColor=#0F8B8D;fontColor=#143642;" parent="1" vertex="1">
          <mxGeometry x="840" y="1400" width="80" height="80" as="geometry" />
        </mxCell>
        <mxCell id="2riaoFkCgRDuT4ozKjDX-65" value="" style="endArrow=none;html=1;rounded=0;entryX=0.5;entryY=0;entryDx=0;entryDy=0;exitX=0.5;exitY=1;exitDx=0;exitDy=0;labelBackgroundColor=none;strokeColor=#A8201A;fontColor=default;" parent="1" source="2riaoFkCgRDuT4ozKjDX-76" target="2riaoFkCgRDuT4ozKjDX-66" edge="1">
          <mxGeometry width="50" height="50" relative="1" as="geometry">
            <mxPoint x="830" y="1780" as="sourcePoint" />
            <mxPoint x="880" y="1830" as="targetPoint" />
          </mxGeometry>
        </mxCell>
        <mxCell id="2riaoFkCgRDuT4ozKjDX-66" value="dataInicio" style="ellipse;whiteSpace=wrap;html=1;labelBackgroundColor=none;fillColor=#FAE5C7;strokeColor=#0F8B8D;fontColor=#143642;" parent="1" vertex="1">
          <mxGeometry x="840" y="1640" width="80" height="80" as="geometry" />
        </mxCell>
        <mxCell id="2riaoFkCgRDuT4ozKjDX-67" value="" style="endArrow=none;html=1;rounded=0;exitX=0.5;exitY=1;exitDx=0;exitDy=0;entryX=0.5;entryY=0;entryDx=0;entryDy=0;labelBackgroundColor=none;strokeColor=#A8201A;fontColor=default;" parent="1" source="2riaoFkCgRDuT4ozKjDX-66" target="2riaoFkCgRDuT4ozKjDX-68" edge="1">
          <mxGeometry width="50" height="50" relative="1" as="geometry">
            <mxPoint x="880" y="1720" as="sourcePoint" />
            <mxPoint x="880" y="1790" as="targetPoint" />
          </mxGeometry>
        </mxCell>
        <mxCell id="2riaoFkCgRDuT4ozKjDX-68" value="horaInicio" style="ellipse;whiteSpace=wrap;html=1;labelBackgroundColor=none;fillColor=#FAE5C7;strokeColor=#0F8B8D;fontColor=#143642;" parent="1" vertex="1">
          <mxGeometry x="840" y="1760" width="80" height="80" as="geometry" />
        </mxCell>
        <mxCell id="2riaoFkCgRDuT4ozKjDX-69" value="" style="endArrow=none;html=1;rounded=0;exitX=0.5;exitY=1;exitDx=0;exitDy=0;entryX=0.5;entryY=0;entryDx=0;entryDy=0;labelBackgroundColor=none;strokeColor=#A8201A;fontColor=default;" parent="1" target="2riaoFkCgRDuT4ozKjDX-70" edge="1">
          <mxGeometry width="50" height="50" relative="1" as="geometry">
            <mxPoint x="880" y="1840" as="sourcePoint" />
            <mxPoint x="880" y="1910" as="targetPoint" />
          </mxGeometry>
        </mxCell>
        <mxCell id="2riaoFkCgRDuT4ozKjDX-70" value="dataFim" style="ellipse;whiteSpace=wrap;html=1;labelBackgroundColor=none;fillColor=#FAE5C7;strokeColor=#0F8B8D;fontColor=#143642;" parent="1" vertex="1">
          <mxGeometry x="840" y="1880" width="80" height="80" as="geometry" />
        </mxCell>
        <mxCell id="2riaoFkCgRDuT4ozKjDX-71" value="" style="endArrow=none;html=1;rounded=0;exitX=0.5;exitY=1;exitDx=0;exitDy=0;entryX=0.5;entryY=0;entryDx=0;entryDy=0;labelBackgroundColor=none;strokeColor=#A8201A;fontColor=default;" parent="1" source="2riaoFkCgRDuT4ozKjDX-70" target="2riaoFkCgRDuT4ozKjDX-72" edge="1">
          <mxGeometry width="50" height="50" relative="1" as="geometry">
            <mxPoint x="880" y="1960" as="sourcePoint" />
            <mxPoint x="880" y="2030" as="targetPoint" />
          </mxGeometry>
        </mxCell>
        <mxCell id="2riaoFkCgRDuT4ozKjDX-72" value="horaFim" style="ellipse;whiteSpace=wrap;html=1;labelBackgroundColor=none;fillColor=#FAE5C7;strokeColor=#0F8B8D;fontColor=#143642;" parent="1" vertex="1">
          <mxGeometry x="840" y="2000" width="80" height="80" as="geometry" />
        </mxCell>
        <mxCell id="2riaoFkCgRDuT4ozKjDX-75" value="" style="endArrow=none;html=1;rounded=0;exitX=0.5;exitY=1;exitDx=0;exitDy=0;entryX=0.5;entryY=0;entryDx=0;entryDy=0;labelBackgroundColor=none;strokeColor=#A8201A;fontColor=default;" parent="1" source="2riaoFkCgRDuT4ozKjDX-64" target="2riaoFkCgRDuT4ozKjDX-76" edge="1">
          <mxGeometry width="50" height="50" relative="1" as="geometry">
            <mxPoint x="880" y="1480" as="sourcePoint" />
            <mxPoint x="880" y="1550" as="targetPoint" />
          </mxGeometry>
        </mxCell>
        <mxCell id="2riaoFkCgRDuT4ozKjDX-76" value="validarSucesso" style="ellipse;whiteSpace=wrap;html=1;labelBackgroundColor=none;fillColor=#FAE5C7;strokeColor=#0F8B8D;fontColor=#143642;" parent="1" vertex="1">
          <mxGeometry x="835" y="1520" width="90" height="80" as="geometry" />
        </mxCell>
        <mxCell id="eWHumccXY5G5uVtTV75Z-3" value="Situar-se/&lt;br&gt;Ter" style="rhombus;whiteSpace=wrap;html=1;labelBackgroundColor=none;fillColor=#FAE5C7;strokeColor=#0F8B8D;fontColor=#143642;" parent="1" vertex="1">
          <mxGeometry x="1380" y="1760" width="80" height="80" as="geometry" />
        </mxCell>
        <mxCell id="eWHumccXY5G5uVtTV75Z-4" value="" style="endArrow=none;html=1;rounded=0;entryX=0.5;entryY=0;entryDx=0;entryDy=0;exitX=0.5;exitY=1;exitDx=0;exitDy=0;labelBackgroundColor=none;strokeColor=#A8201A;fontColor=default;" parent="1" source="2riaoFkCgRDuT4ozKjDX-6" target="eWHumccXY5G5uVtTV75Z-3" edge="1">
          <mxGeometry width="50" height="50" relative="1" as="geometry">
            <mxPoint x="1270" y="1670" as="sourcePoint" />
            <mxPoint x="1160" y="1870" as="targetPoint" />
          </mxGeometry>
        </mxCell>
        <mxCell id="eWHumccXY5G5uVtTV75Z-5" value="" style="endArrow=none;html=1;rounded=0;entryX=0.5;entryY=0;entryDx=0;entryDy=0;exitX=0.5;exitY=1;exitDx=0;exitDy=0;labelBackgroundColor=none;strokeColor=#A8201A;fontColor=default;" parent="1" source="eWHumccXY5G5uVtTV75Z-3" target="2riaoFkCgRDuT4ozKjDX-7" edge="1">
          <mxGeometry width="50" height="50" relative="1" as="geometry">
            <mxPoint x="1050" y="1990" as="sourcePoint" />
            <mxPoint x="1270" y="1910" as="targetPoint" />
          </mxGeometry>
        </mxCell>
        <mxCell id="eWHumccXY5G5uVtTV75Z-6" value="n" style="text;html=1;strokeColor=none;fillColor=none;align=center;verticalAlign=middle;whiteSpace=wrap;rounded=0;labelBackgroundColor=none;fontColor=#143642;" parent="1" vertex="1">
          <mxGeometry x="1370" y="1680" width="60" height="30" as="geometry" />
        </mxCell>
        <mxCell id="eWHumccXY5G5uVtTV75Z-7" value="1" style="text;html=1;strokeColor=none;fillColor=none;align=center;verticalAlign=middle;whiteSpace=wrap;rounded=0;labelBackgroundColor=none;fontColor=#143642;" parent="1" vertex="1">
          <mxGeometry x="1370" y="1890" width="60" height="30" as="geometry" />
        </mxCell>
        <mxCell id="WWU5L2h-9N9tsZXrCsHV-1" value="" style="endArrow=none;html=1;rounded=0;exitX=1;exitY=0.5;exitDx=0;exitDy=0;entryX=0;entryY=0.5;entryDx=0;entryDy=0;labelBackgroundColor=none;strokeColor=#A8201A;fontColor=default;" parent="1" source="2riaoFkCgRDuT4ozKjDX-51" target="WWU5L2h-9N9tsZXrCsHV-2" edge="1">
          <mxGeometry width="50" height="50" relative="1" as="geometry">
            <mxPoint x="1780" y="1320" as="sourcePoint" />
            <mxPoint x="1830" y="1320" as="targetPoint" />
          </mxGeometry>
        </mxCell>
        <mxCell id="WWU5L2h-9N9tsZXrCsHV-2" value="localizacaoGPS" style="ellipse;whiteSpace=wrap;html=1;labelBackgroundColor=none;fillColor=#FAE5C7;strokeColor=#0F8B8D;fontColor=#143642;" parent="1" vertex="1">
          <mxGeometry x="1760" y="1280" width="100" height="80" as="geometry" />
        </mxCell>
      </root>
    </mxGraphModel>
  </diagram>
</mxfile>
